<svg xmlns="http://www.w3.org/2000/svg" viewBox="0 0 64 64" width="64" height="64">
  <defs>
    <linearGradient id="oc" x1="0" y1="0" x2="1" y2="1">
      <stop offset="0" stop-color="#1FB6A6"/>
      <stop offset="1" stop-color="#0E7C8C"/>
    </linearGradient>
  </defs>
  <circle cx="32" cy="32" r="30" fill="url(#oc)"/>
  <path d="M14 38 C14 26 24 20 33 21 C36 16 41 15 45 16 C42 19 42 22 43 24 C49 27 51 33 49 39 C47 45 39 48 31 47 C22 46 14 44 14 38 Z" fill="#10202A"/>
  <path d="M30 33 C33 31 38 31 42 34 C39 37 33 38 30 36 Z" fill="#fff"/>
  <circle cx="24" cy="33" r="2.4" fill="#fff"/>
  <path d="M14 38 C16 41 20 43 24 43 C21 41 18 39 14 38 Z" fill="#0B5360"/>
</svg>
